# xmcd CD database file
#
# Track frame offsets:
#	150
#	14448
#	28297
#	41809
#	54533
#	69150
#	83848
#	98402
#	112513
#	124494
#	134024
#	148200
#	162246
#	175840
#	190680
#	203578
#	219450
#
# Disc length: 3106 seconds
#
# Revision: 1
# Processed by: cddbd v1.5.2PL0 Copyright (c) Steve Scherf et al.
# Submitted via: CDex 1.70beta2
#
DISCID=ed0c2011
DTITLE=Various Artist - Dansegalla 2
DYEAR=2002
DGENRE=Danseband
TTITLE0=Ole Ivars - Kjerringa mi kan itte spelle trekkspell
TTITLE1=Gunnar Fjeldseth Band - MInnenes cafè
TTITLE2=Dænsebændet - Løgn og fanteri
TTITLE3=Trond Erics - Ingen annen enn du
TTITLE4=Rikingan - Senoritas og margaritas
TTITLE5=Jiws - Husker du
TTITLE6=Can Dance - Gi meg en tier
TTITLE7=Kjetil Nordfjeld and Christiania - Under samme sol
TTITLE8=Kai Robert and Mina Wu - Forelsket
TTITLE9=Arne Strømbergs - Jenka
TTITLE10=Jan Borseths - 40 år med fest
TTITLE11=Furulunds - Min kjære
TTITLE12=PK and Dansefolket - Et kvarter over sju
TTITLE13=Joe Bjørnars - Mannsgris, Sofabonde, Døgenikt og knøl
TTITLE14=Ingemars - Jintas swing på høge hæler
TTITLE15=Kim William - Savner deg
TTITLE16=Gøran and the Debitors - Fyllekula
EXTD=YEAR: 2002
EXTT0=
EXTT1=
EXTT2=
EXTT3=
EXTT4=
EXTT5=
EXTT6=
EXTT7=
EXTT8=
EXTT9=
EXTT10=
EXTT11=
EXTT12=
EXTT13=
EXTT14=
EXTT15=
EXTT16=
PLAYORDER=
